<?xml version="1.0" encoding="UTF-8" standalone="no"?>
<!DOCTYPE svg PUBLIC "-//W3C//DTD SVG 1.1//EN"
 "http://www.w3.org/Graphics/SVG/1.1/DTD/svg11.dtd">
<!-- Generated by graphviz version 10.0.1 (20240210.2158)
 -->
<!-- Title: egraph Pages: 1 -->
<svg width="205pt" height="148pt"
 viewBox="0.00 0.00 205.00 148.00" xmlns="http://www.w3.org/2000/svg" xmlns:xlink="http://www.w3.org/1999/xlink">
<g id="graph0" class="graph" transform="scale(1 1) rotate(0) translate(4 144)">
<title>egraph</title>
<polygon fill="white" stroke="none" points="-4,4 -4,-144 201,-144 201,4 -4,4"/>
<g id="clust1" class="cluster">
<title>cluster_0</title>
<polygon fill="none" stroke="black" stroke-dasharray="1,5" points="47,-8 47,-60 189,-60 189,-8 47,-8"/>
</g>
<g id="clust2" class="cluster">
<title>cluster_3</title>
<polygon fill="none" stroke="black" stroke-dasharray="1,5" points="8,-80 8,-132 78,-132 78,-80 8,-80"/>
</g>
<g id="clust3" class="cluster">
<title>cluster_2</title>
<polygon fill="none" stroke="black" stroke-dasharray="1,5" points="86,-80 86,-132 156,-132 156,-80 86,-80"/>
</g>
<!-- 0.0 -->
<g id="node1" class="node">
<title>0.0</title>
<ellipse fill="none" stroke="black" cx="82" cy="-34" rx="27" ry="18"/>
<text text-anchor="middle" x="82" y="-28.95" font-family="Times,serif" font-size="14.00">b</text>
</g>
<!-- 0.1 -->
<g id="node2" class="node">
<title>0.1</title>
<ellipse fill="none" stroke="black" cx="154" cy="-34" rx="27" ry="18"/>
<text text-anchor="middle" x="154" y="-28.95" font-family="Times,serif" font-size="14.00">a</text>
</g>
<!-- 3.0 -->
<g id="node3" class="node">
<title>3.0</title>
<ellipse fill="none" stroke="black" cx="43" cy="-106" rx="27" ry="18"/>
<text text-anchor="middle" x="43" y="-100.95" font-family="Times,serif" font-size="14.00">bar</text>
</g>
<!-- 3.0&#45;&gt;0.0 -->
<g id="edge1" class="edge">
<title>3.0:sw&#45;&gt;0.0</title>
<path fill="none" stroke="black" d="M28,-90C17.94,-79.94 25.54,-68.76 37.87,-59.12"/>
<polygon fill="black" stroke="black" points="39.58,-62.19 45.76,-53.59 35.57,-56.46 39.58,-62.19"/>
</g>
<!-- 3.0&#45;&gt;0.0 -->
<g id="edge2" class="edge">
<title>3.0:se&#45;&gt;0.0</title>
<path fill="none" stroke="black" d="M58,-90C65.41,-82.59 70.71,-72.5 74.4,-63"/>
<polygon fill="black" stroke="black" points="73.59,-71.78 75.31,-61.33 67.45,-68.43 73.59,-71.78"/>
</g>
<!-- 2.0 -->
<g id="node4" class="node">
<title>2.0</title>
<ellipse fill="none" stroke="black" cx="121" cy="-106" rx="27" ry="18"/>
<text text-anchor="middle" x="121" y="-100.95" font-family="Times,serif" font-size="14.00">foo</text>
</g>
<!-- 2.0&#45;&gt;0.0 -->
<g id="edge3" class="edge">
<title>2.0:sw&#45;&gt;0.0</title>
<path fill="none" stroke="black" d="M106,-90C98.59,-82.59 93.29,-72.5 89.6,-63"/>
<polygon fill="black" stroke="black" points="96.55,-68.43 88.69,-61.33 90.41,-71.78 96.55,-68.43"/>
</g>
<!-- 2.0&#45;&gt;0.0 -->
<g id="edge4" class="edge">
<title>2.0:se&#45;&gt;0.0</title>
<path fill="none" stroke="black" d="M136,-90C140.51,-85.49 134.16,-76.7 124.41,-67.44"/>
<polygon fill="black" stroke="black" points="126.95,-65.01 117.15,-61 122.31,-70.25 126.95,-65.01"/>
</g>
</g>
</svg>
